<svg width="158" height="134" viewBox="0 0 158 134" fill="none" xmlns="http://www.w3.org/2000/svg">
<g filter="url(#filter0_d_1_8224)">
<path d="M124.772 63.7154H148C147.807 57.7212 146.759 51.9143 144.952 46.3723C137.363 44.9706 129.708 43.7692 122.014 42.7874C123.672 49.4146 124.623 56.4294 124.765 63.7025L124.779 63.7154H124.772Z" fill="#F1564D"/>
<path d="M120.06 37.5618C128.095 38.5565 136.092 39.7579 144.038 41.1854C140.537 32.614 135.304 24.753 128.711 17.9191C122.029 16.0653 115.273 14.5021 108.449 13.2167C113.385 20.3155 117.332 28.5575 120.067 37.5682H120.052L120.06 37.5618Z" fill="#F1564D"/>
<path d="M37.7397 98.2985C39.4345 108.13 41.865 116.591 44.7564 123.393C49.8108 123.748 54.8727 123.948 59.9419 124V98.925C52.5313 98.8927 45.1355 98.6731 37.7397 98.2856V98.2985Z" fill="#49B752"/>
<path d="M35.1828 68.618C35.2794 77.7321 35.9335 86.2325 37.0411 93.9643C44.6524 94.3777 52.2934 94.6038 59.9271 94.6425V68.6051H35.168L35.1828 68.618Z" fill="#49B752"/>
<path d="M32.7597 98.0143C25.1483 97.5363 17.5593 96.8774 10 96.0184C13.0326 105.442 17.4775 113.872 22.9631 120.9C28.4188 121.765 33.8969 122.456 39.4047 122.967C39.3081 122.728 39.2115 122.501 39.1148 122.256C36.3795 115.157 34.2463 106.928 32.7597 98.0143Z" fill="#49B752"/>
<path d="M92.0448 34.9522C99.6561 35.4302 107.245 36.0891 114.804 36.9482C111.772 27.5241 107.327 19.0947 101.841 12.067C96.3856 11.2014 90.9076 10.5103 85.3923 10C85.489 10.239 85.5856 10.4651 85.6822 10.7105C88.4027 17.8093 90.5508 26.0384 92.0374 34.9522H92.0448Z" fill="#F1564D"/>
<path d="M119.309 64.3485C119.182 58.6707 118.588 53.1545 117.57 47.845L111.237 64.3485H119.309Z" fill="#F9B517"/>
<path d="M105.84 40.3264C101.477 39.9259 97.1066 39.5642 92.7138 39.28C92.8624 40.3716 92.9888 41.489 93.1226 42.5936L105.833 40.3264H105.84Z" fill="#F9B517"/>
<path d="M82.6422 67.4941L42.1475 57.1205L112.329 44.6153L89.6886 103.653L82.6347 67.4941H82.6422Z" fill="black"/>
<path d="M109.475 68.941L100.273 92.9437C105.922 92.5045 111.534 91.9555 117.153 91.3031C119.026 84.2754 120.104 76.7503 120.268 68.9346H109.468L109.475 68.941Z" fill="#F9B517"/>
<path d="M77.2458 71.6604L65.3903 68.6245H64.87V94.6619C70.4595 94.6361 76.064 94.4939 81.6536 94.2679L77.2384 71.6668L77.2458 71.6604Z" fill="#49B752"/>
<path d="M88.3283 43.4527C88.1499 41.9476 87.9567 40.4491 87.756 38.9893C80.1447 38.5759 72.5036 38.3498 64.87 38.3111V47.6318L88.3283 43.4527Z" fill="#F1564D"/>
</g>
<defs>
<filter id="filter0_d_1_8224" x="-4" y="0" width="166" height="142" filterUnits="userSpaceOnUse" color-interpolation-filters="sRGB">
<feFlood flood-opacity="0" result="BackgroundImageFix"/>
<feColorMatrix in="SourceAlpha" type="matrix" values="0 0 0 0 0 0 0 0 0 0 0 0 0 0 0 0 0 0 127 0" result="hardAlpha"/>
<feOffset dy="4"/>
<feGaussianBlur stdDeviation="2"/>
<feComposite in2="hardAlpha" operator="out"/>
<feColorMatrix type="matrix" values="0 0 0 0 0 0 0 0 0 0 0 0 0 0 0 0 0 0 0.25 0"/>
<feBlend mode="normal" in2="BackgroundImageFix" result="effect1_dropShadow_1_8224"/>
<feBlend mode="normal" in="SourceGraphic" in2="effect1_dropShadow_1_8224" result="shape"/>
</filter>
</defs>
</svg>
